<?xml version="1.0" standalone="no"?>
<!DOCTYPE svg PUBLIC "-//W3C//DTD SVG 20010904//EN"
 "http://www.w3.org/TR/2001/REC-SVG-20010904/DTD/svg10.dtd">
<svg version="1.0" xmlns="http://www.w3.org/2000/svg"
 width="168.000000pt" height="26.000000pt" viewBox="0 0 168.000000 26.000000"
 preserveAspectRatio="xMidYMid meet">

<g transform="translate(0.000000,26.000000) scale(0.100000,-0.100000)"
fill="#000000" stroke="none">
<path d="M42 224 c-30 -21 -30 -68 1 -89 13 -8 37 -18 55 -21 42 -8 57 -27 36
-44 -12 -11 -22 -11 -48 -2 -44 16 -66 15 -66 -3 0 -24 58 -48 102 -42 93 12
107 104 20 123 -47 10 -74 24 -70 37 6 16 47 22 61 8 14 -14 57 -14 57 -1 0 6
-9 19 -20 30 -25 25 -95 27 -128 4z"/>
<path d="M257 233 c-4 -3 -7 -53 -7 -110 l0 -103 26 0 c24 0 26 3 22 40 -2 26
1 40 8 40 6 0 26 3 43 6 l31 7 0 -47 c0 -42 2 -46 25 -46 l25 0 0 110 c0 81
-3 110 -12 110 -25 0 -36 -15 -40 -50 -3 -33 -6 -35 -40 -38 l-38 -3 0 45 c0
38 -3 46 -18 46 -10 0 -22 -3 -25 -7z"/>
<path d="M507 138 c-20 -57 -37 -106 -37 -110 0 -5 11 -8 25 -8 18 0 25 5 25
19 0 14 10 21 36 25 19 4 41 9 49 12 8 4 15 -5 20 -25 5 -24 12 -31 31 -31 13
0 24 3 24 8 0 4 -17 53 -37 110 -36 99 -38 102 -68 102 -30 0 -32 -3 -68 -102z
m93 -15 c0 -8 -12 -13 -30 -13 -19 0 -28 4 -25 13 2 6 10 26 16 42 l11 30 14
-30 c7 -16 13 -36 14 -42z"/>
<path d="M735 215 c-21 -20 -25 -34 -25 -80 0 -31 4 -64 10 -74 23 -43 120
-52 161 -15 25 22 26 92 3 101 -20 8 -66 -8 -72 -24 -2 -9 7 -13 28 -13 31 0
32 -1 18 -23 -19 -27 -60 -34 -82 -12 -18 18 -21 76 -6 106 11 20 54 26 65 9
7 -12 65 -14 65 -2 -1 51 -121 72 -165 27z"/>
<path d="M957 233 c-4 -3 -7 -53 -7 -110 l0 -103 26 0 c24 0 26 3 22 40 -3 35
-1 40 17 40 13 0 27 -13 40 -38 15 -27 28 -38 48 -40 l27 -3 -21 44 c-21 43
-21 46 -5 62 26 26 18 86 -14 102 -26 13 -122 18 -133 6z m108 -63 c0 -21 -5
-26 -31 -28 -28 -3 -32 0 -36 28 -5 30 -4 31 31 28 31 -3 36 -7 36 -28z"/>
<path d="M1257 233 c-4 -3 -7 -53 -7 -110 l0 -103 30 0 c28 0 30 2 30 40 0 53
22 53 52 0 18 -31 29 -40 51 -40 32 0 32 0 8 48 -19 37 -19 38 0 61 26 31 24
57 -6 86 -20 21 -33 25 -88 25 -35 0 -67 -3 -70 -7z m114 -49 c11 -14 10 -18
-6 -30 -27 -20 -47 -14 -56 19 -7 25 -5 27 21 27 15 0 34 -7 41 -16z"/>
<path d="M1477 233 c-4 -3 -7 -42 -7 -85 0 -70 3 -82 25 -103 34 -35 106 -35
140 0 23 22 25 32 25 110 l0 86 -27 -3 c-27 -3 -28 -5 -33 -83 l-5 -80 -30 0
-30 0 -3 83 c-3 78 -4 82 -26 82 -12 0 -26 -3 -29 -7z"/>
<path d="M1160 45 c0 -20 5 -25 25 -25 20 0 25 5 25 25 0 20 -5 25 -25 25 -20
0 -25 -5 -25 -25z"/>
</g>
</svg>
